# xmcd
#
# Track frame offsets: 
#        183
#        28880
#        61718
#        87588
#        100955
#        131108
#        147290
#
# Disc length: 2193 seconds
#
# Revision: 0
# Processed by: cddbd v1.5.2PL0 Copyright (c) Steve Scherf et al.
# Submitted via: ExactAudioCopy v0.99pb3
#
DISCID=62088f07
DTITLE=Big Mama Thornton - Jail
DYEAR=1900
DGENRE=Blues
TTITLE0=Little Red Rooster
TTITLE1=Ball And Chain
TTITLE2=Jail
TTITLE3=Hound Dog
TTITLE4=Rock Me Baby
TTITLE5=Sheriff O.E. and Me
TTITLE6=Oh Happy Day
EXTD=
EXTT0=
EXTT1=
EXTT2=
EXTT3=
EXTT4=
EXTT5=
EXTT6=
PLAYORDER=
